<svg width="105" height="25" viewBox="0 0 105 25" fill="none" xmlns="http://www.w3.org/2000/svg">
<path d="M0.185493 21.5082H13.5253C13.6272 21.5082 13.7108 21.4252 13.7108 21.3221V14.7534L20.8997 12.7382C21.2603 12.6369 21.2603 12.1242 20.8997 12.0228L13.7108 10.0077V3.43898C13.7108 3.33679 13.6281 3.25293 13.5253 3.25293H0.185493C0.0836025 3.25293 0 3.33591 0 3.43898V21.3221C0 21.4243 0.0827316 21.5082 0.185493 21.5082ZM16.8955 12.2613C17.0166 12.2945 17.0166 12.4666 16.8955 12.4998L13.7108 13.3785V11.3826L16.8955 12.2613ZM12.2042 13.7943L4.99612 15.7824C4.91774 15.8042 4.84023 15.7448 4.84023 15.6627V9.09837C4.84023 9.01627 4.91774 8.95774 4.99612 8.97871L12.2042 10.9668V13.7934V13.7943ZM1.35767 4.73875C1.35767 4.67062 1.41253 4.61471 1.48133 4.61471H12.0806C12.1485 4.61471 12.2042 4.66974 12.2042 4.73875V9.58579L3.95196 7.27276C3.71596 7.20638 3.48169 7.38457 3.48169 7.6309V17.1311C3.48169 17.3765 3.71596 17.5547 3.95196 17.4892L12.2042 15.1762V20.0232C12.2042 20.0913 12.1494 20.1472 12.0806 20.1472H1.48133C1.4134 20.1472 1.35767 20.0922 1.35767 20.0232V4.73875Z" fill="white"/>
<path d="M11.6608 0H0.185493C0.0827316 0 0 0.0829823 0 0.186055V1.17573C0 1.27793 0.0827316 1.36178 0.185493 1.36178H11.6608C17.7159 1.36178 22.6423 6.3049 22.6423 12.381C22.6423 18.457 17.7159 23.4001 11.6608 23.4001H0.185493C0.0836025 23.4001 0 23.4831 0 23.5862V24.5767C0 24.6789 0.0827316 24.7628 0.185493 24.7628H11.6608C18.4648 24.7628 24 19.2091 24 12.3818C24 5.55457 18.4648 0 11.6608 0Z" fill="white"/>
<path d="M35.624 13.832C35.688 14.408 35.912 14.856 36.296 15.176C36.68 15.496 37.144 15.656 37.688 15.656C38.168 15.656 38.568 15.56 38.888 15.368C39.2187 15.1653 39.5067 14.9147 39.752 14.616L41.128 15.656C40.68 16.2107 40.1787 16.6053 39.624 16.84C39.0693 17.0747 38.488 17.192 37.88 17.192C37.304 17.192 36.76 17.096 36.248 16.904C35.736 16.712 35.2933 16.44 34.92 16.088C34.5467 15.736 34.248 15.3147 34.024 14.824C33.8107 14.3227 33.704 13.768 33.704 13.16C33.704 12.552 33.8107 12.0027 34.024 11.512C34.248 11.0107 34.5467 10.584 34.92 10.232C35.2933 9.88 35.736 9.608 36.248 9.416C36.76 9.224 37.304 9.128 37.88 9.128C38.4133 9.128 38.8987 9.224 39.336 9.416C39.784 9.59733 40.1627 9.864 40.472 10.216C40.792 10.568 41.0373 11.0053 41.208 11.528C41.3893 12.04 41.48 12.632 41.48 13.304V13.832H35.624ZM39.56 12.392C39.5493 11.8267 39.3733 11.384 39.032 11.064C38.6907 10.7333 38.216 10.568 37.608 10.568C37.032 10.568 36.5733 10.7333 36.232 11.064C35.9013 11.3947 35.6987 11.8373 35.624 12.392H39.56ZM43.3075 4.904H45.2275V17H43.3075V4.904ZM48.9678 13.832C49.0318 14.408 49.2558 14.856 49.6398 15.176C50.0238 15.496 50.4878 15.656 51.0318 15.656C51.5118 15.656 51.9118 15.56 52.2318 15.368C52.5624 15.1653 52.8504 14.9147 53.0958 14.616L54.4718 15.656C54.0238 16.2107 53.5224 16.6053 52.9678 16.84C52.4131 17.0747 51.8318 17.192 51.2238 17.192C50.6478 17.192 50.1038 17.096 49.5918 16.904C49.0798 16.712 48.6371 16.44 48.2638 16.088C47.8904 15.736 47.5918 15.3147 47.3678 14.824C47.1544 14.3227 47.0478 13.768 47.0478 13.16C47.0478 12.552 47.1544 12.0027 47.3678 11.512C47.5918 11.0107 47.8904 10.584 48.2638 10.232C48.6371 9.88 49.0798 9.608 49.5918 9.416C50.1038 9.224 50.6478 9.128 51.2238 9.128C51.7571 9.128 52.2424 9.224 52.6798 9.416C53.1278 9.59733 53.5064 9.864 53.8158 10.216C54.1358 10.568 54.3811 11.0053 54.5518 11.528C54.7331 12.04 54.8238 12.632 54.8238 13.304V13.832H48.9678ZM52.9038 12.392C52.8931 11.8267 52.7171 11.384 52.3758 11.064C52.0344 10.7333 51.5598 10.568 50.9518 10.568C50.3758 10.568 49.9171 10.7333 49.5758 11.064C49.2451 11.3947 49.0424 11.8373 48.9678 12.392H52.9038ZM61.8673 11.624C61.6433 11.3893 61.4086 11.2027 61.1633 11.064C60.9179 10.9253 60.6673 10.856 60.4113 10.856C60.0593 10.856 59.7446 10.92 59.4673 11.048C59.1899 11.176 58.9499 11.3467 58.7473 11.56C58.5553 11.7733 58.4059 12.0187 58.2993 12.296C58.2033 12.5733 58.1553 12.8613 58.1553 13.16C58.1553 13.4587 58.2033 13.7467 58.2993 14.024C58.4059 14.3013 58.5553 14.5467 58.7473 14.76C58.9499 14.9733 59.1899 15.144 59.4673 15.272C59.7446 15.4 60.0593 15.464 60.4113 15.464C60.7099 15.464 60.9873 15.4053 61.2433 15.288C61.4993 15.16 61.7179 14.9787 61.8993 14.744L63.1793 16.12C62.9873 16.312 62.7633 16.4773 62.5073 16.616C62.2619 16.7547 62.0113 16.8667 61.7553 16.952C61.4993 17.0373 61.2539 17.096 61.0193 17.128C60.7846 17.1707 60.5819 17.192 60.4113 17.192C59.8353 17.192 59.2913 17.096 58.7793 16.904C58.2673 16.712 57.8246 16.44 57.4513 16.088C57.0779 15.736 56.7793 15.3147 56.5553 14.824C56.3419 14.3227 56.2353 13.768 56.2353 13.16C56.2353 12.552 56.3419 12.0027 56.5553 11.512C56.7793 11.0107 57.0779 10.584 57.4513 10.232C57.8246 9.88 58.2673 9.608 58.7793 9.416C59.2913 9.224 59.8353 9.128 60.4113 9.128C60.9019 9.128 61.3926 9.224 61.8833 9.416C62.3846 9.59733 62.8219 9.89067 63.1953 10.296L61.8673 11.624ZM63.442 10.952V9.32H65.026V7.096H66.946V9.32H69.058V10.952H66.946V14.312C66.946 14.696 67.0153 15 67.154 15.224C67.3033 15.448 67.5913 15.56 68.018 15.56C68.1887 15.56 68.3753 15.544 68.578 15.512C68.7807 15.4693 68.9407 15.4053 69.058 15.32V16.936C68.8553 17.032 68.6047 17.096 68.306 17.128C68.018 17.1707 67.762 17.192 67.538 17.192C67.026 17.192 66.6047 17.1333 66.274 17.016C65.954 16.9093 65.698 16.744 65.506 16.52C65.3247 16.2853 65.1967 15.9973 65.122 15.656C65.058 15.3147 65.026 14.92 65.026 14.472V10.952H63.442ZM70.5568 9.32H72.4768V10.536H72.5088C72.7221 10.088 73.0261 9.74133 73.4208 9.496C73.8154 9.25067 74.2688 9.128 74.7808 9.128C74.8981 9.128 75.0101 9.13867 75.1168 9.16C75.2341 9.18133 75.3514 9.208 75.4688 9.24V11.096C75.3088 11.0533 75.1488 11.0213 74.9888 11C74.8394 10.968 74.6901 10.952 74.5408 10.952C74.0928 10.952 73.7301 11.0373 73.4528 11.208C73.1861 11.368 72.9781 11.5547 72.8288 11.768C72.6901 11.9813 72.5941 12.1947 72.5408 12.408C72.4981 12.6213 72.4768 12.7813 72.4768 12.888V17H70.5568V9.32ZM76.1103 13.16C76.1103 12.552 76.2169 12.0027 76.4303 11.512C76.6543 11.0107 76.9529 10.584 77.3263 10.232C77.6996 9.88 78.1423 9.608 78.6543 9.416C79.1663 9.224 79.7103 9.128 80.2863 9.128C80.8623 9.128 81.4063 9.224 81.9183 9.416C82.4303 9.608 82.8729 9.88 83.2463 10.232C83.6196 10.584 83.9129 11.0107 84.1263 11.512C84.3503 12.0027 84.4623 12.552 84.4623 13.16C84.4623 13.768 84.3503 14.3227 84.1263 14.824C83.9129 15.3147 83.6196 15.736 83.2463 16.088C82.8729 16.44 82.4303 16.712 81.9183 16.904C81.4063 17.096 80.8623 17.192 80.2863 17.192C79.7103 17.192 79.1663 17.096 78.6543 16.904C78.1423 16.712 77.6996 16.44 77.3263 16.088C76.9529 15.736 76.6543 15.3147 76.4303 14.824C76.2169 14.3227 76.1103 13.768 76.1103 13.16ZM78.0303 13.16C78.0303 13.4587 78.0783 13.7467 78.1743 14.024C78.2809 14.3013 78.4303 14.5467 78.6223 14.76C78.8249 14.9733 79.0649 15.144 79.3423 15.272C79.6196 15.4 79.9343 15.464 80.2863 15.464C80.6383 15.464 80.9529 15.4 81.2303 15.272C81.5076 15.144 81.7423 14.9733 81.9343 14.76C82.1369 14.5467 82.2863 14.3013 82.3823 14.024C82.4889 13.7467 82.5423 13.4587 82.5423 13.16C82.5423 12.8613 82.4889 12.5733 82.3823 12.296C82.2863 12.0187 82.1369 11.7733 81.9343 11.56C81.7423 11.3467 81.5076 11.176 81.2303 11.048C80.9529 10.92 80.6383 10.856 80.2863 10.856C79.9343 10.856 79.6196 10.92 79.3423 11.048C79.0649 11.176 78.8249 11.3467 78.6223 11.56C78.4303 11.7733 78.2809 12.0187 78.1743 12.296C78.0783 12.5733 78.0303 12.8613 78.0303 13.16ZM92.3399 15.848H92.3079C92.0305 16.3173 91.6572 16.6587 91.1879 16.872C90.7185 17.0853 90.2119 17.192 89.6679 17.192C89.0705 17.192 88.5372 17.0907 88.0679 16.888C87.6092 16.6747 87.2145 16.3867 86.8839 16.024C86.5532 15.6613 86.3025 15.2347 86.1319 14.744C85.9612 14.2533 85.8759 13.7253 85.8759 13.16C85.8759 12.5947 85.9665 12.0667 86.1479 11.576C86.3292 11.0853 86.5799 10.6587 86.8999 10.296C87.2305 9.93333 87.6252 9.65067 88.0839 9.448C88.5425 9.23467 89.0439 9.128 89.5879 9.128C89.9505 9.128 90.2705 9.16533 90.5479 9.24C90.8252 9.31467 91.0705 9.41067 91.2839 9.528C91.4972 9.64533 91.6785 9.77333 91.8279 9.912C91.9772 10.04 92.0999 10.168 92.1959 10.296H92.2439V4.904H94.1639V17H92.3399V15.848ZM87.7959 13.16C87.7959 13.4587 87.8439 13.7467 87.9399 14.024C88.0465 14.3013 88.1959 14.5467 88.3879 14.76C88.5905 14.9733 88.8305 15.144 89.1079 15.272C89.3852 15.4 89.6999 15.464 90.0519 15.464C90.4039 15.464 90.7185 15.4 90.9959 15.272C91.2732 15.144 91.5079 14.9733 91.6999 14.76C91.9025 14.5467 92.0519 14.3013 92.1479 14.024C92.2545 13.7467 92.3079 13.4587 92.3079 13.16C92.3079 12.8613 92.2545 12.5733 92.1479 12.296C92.0519 12.0187 91.9025 11.7733 91.6999 11.56C91.5079 11.3467 91.2732 11.176 90.9959 11.048C90.7185 10.92 90.4039 10.856 90.0519 10.856C89.6999 10.856 89.3852 10.92 89.1079 11.048C88.8305 11.176 88.5905 11.3467 88.3879 11.56C88.1959 11.7733 88.0465 12.0187 87.9399 12.296C87.8439 12.5733 87.7959 12.8613 87.7959 13.16ZM97.874 13.832C97.938 14.408 98.162 14.856 98.546 15.176C98.93 15.496 99.394 15.656 99.938 15.656C100.418 15.656 100.818 15.56 101.138 15.368C101.469 15.1653 101.757 14.9147 102.002 14.616L103.378 15.656C102.93 16.2107 102.429 16.6053 101.874 16.84C101.319 17.0747 100.738 17.192 100.13 17.192C99.554 17.192 99.01 17.096 98.498 16.904C97.986 16.712 97.5433 16.44 97.17 16.088C96.7967 15.736 96.498 15.3147 96.274 14.824C96.0607 14.3227 95.954 13.768 95.954 13.16C95.954 12.552 96.0607 12.0027 96.274 11.512C96.498 11.0107 96.7967 10.584 97.17 10.232C97.5433 9.88 97.986 9.608 98.498 9.416C99.01 9.224 99.554 9.128 100.13 9.128C100.663 9.128 101.149 9.224 101.586 9.416C102.034 9.59733 102.413 9.864 102.722 10.216C103.042 10.568 103.287 11.0053 103.458 11.528C103.639 12.04 103.73 12.632 103.73 13.304V13.832H97.874ZM101.81 12.392C101.799 11.8267 101.623 11.384 101.282 11.064C100.941 10.7333 100.466 10.568 99.858 10.568C99.282 10.568 98.8233 10.7333 98.482 11.064C98.1513 11.3947 97.9487 11.8373 97.874 12.392H101.81Z" fill="white"/>
</svg>
