<svg width="20" height="21" viewBox="0 0 20 21" fill="none" xmlns="http://www.w3.org/2000/svg">
<path d="M10 0C7.28417 0 6.94362 0.0115374 5.877 0.0602511C4.81262 0.108875 4.08569 0.278181 3.4496 0.525684C2.79201 0.781595 2.23434 1.12402 1.67842 1.68071C1.12247 2.2374 0.780514 2.79591 0.524987 3.45441C0.277766 4.09135 0.108755 4.81928 0.060138 5.88514C0.0114917 6.95324 0 7.29426 0 10.0139C0 12.7334 0.0114917 13.0745 0.060138 14.1426C0.108755 15.2084 0.277766 15.9363 0.524987 16.5733C0.780544 17.2318 1.1225 17.7902 1.67842 18.347C2.23437 18.9037 2.79201 19.2461 3.4496 19.502C4.08569 19.7495 4.81262 19.9188 5.877 19.9674C6.94362 20.0162 7.28417 20.0277 10 20.0277C12.7158 20.0277 13.0564 20.0162 14.123 19.9674C15.1874 19.9188 15.9143 19.7495 16.5504 19.502C17.208 19.2461 17.7656 18.9037 18.3216 18.347C18.8775 17.7902 19.2195 17.2318 19.475 16.5733C19.7222 15.9363 19.8913 15.2084 19.9398 14.1426C19.9885 13.0745 20 12.7334 20 10.0139C20 7.29426 19.9885 6.95324 19.9398 5.88514C19.8913 4.81928 19.7222 4.09135 19.475 3.45441C19.2195 2.79591 18.8775 2.2374 18.3216 1.68071C17.7656 1.12402 17.208 0.781595 16.5504 0.525684C15.9143 0.278181 15.1874 0.108875 14.123 0.0602511C13.0564 0.0115374 12.7158 0 10 0ZM10 1.80428C12.6701 1.80428 12.9864 1.81451 14.0409 1.86269C15.0159 1.9072 15.5454 2.07033 15.8977 2.20747C16.3645 2.38915 16.6976 2.60612 17.0475 2.95654C17.3975 3.30695 17.6142 3.64056 17.7956 4.10796C17.9325 4.46082 18.0954 4.99106 18.1399 5.9674C18.188 7.02333 18.1982 7.34005 18.1982 10.0139C18.1982 12.6876 18.188 13.0044 18.1399 14.0603C18.0954 15.0367 17.9325 15.5669 17.7956 15.9197C17.6142 16.3872 17.3975 16.7207 17.0475 17.0711C16.6976 17.4216 16.3645 17.6386 15.8977 17.8202C15.5454 17.9574 15.0158 18.1205 14.0409 18.165C12.9866 18.2132 12.6703 18.2234 10 18.2234C7.32969 18.2234 7.01349 18.2132 5.95914 18.165C4.98413 18.1205 4.45465 17.9574 4.10231 17.8202C3.63549 17.6386 3.30238 17.4216 2.95248 17.0711C2.60255 16.7207 2.38584 16.3871 2.20442 15.9197C2.06747 15.5669 1.90459 15.0366 1.86011 14.0603C1.812 13.0044 1.80179 12.6876 1.80179 10.0139C1.80179 7.34005 1.812 7.02333 1.86011 5.9674C1.90459 4.99103 2.06747 4.46082 2.20442 4.10799C2.38584 3.64053 2.60255 3.30695 2.95245 2.95657C3.30238 2.60612 3.63552 2.38915 4.10228 2.20747C4.45465 2.07033 4.98416 1.9072 5.95914 1.86269C7.01361 1.81451 7.3299 1.80428 10 1.80428" fill="white"/>
<path d="M10 13.3519C8.15903 13.3519 6.66666 11.8574 6.66666 10.0139C6.66666 8.17038 8.15903 6.67594 10 6.67594C11.841 6.67594 13.3333 8.17038 13.3333 10.0139C13.3333 11.8574 11.841 13.3519 10 13.3519ZM10 4.87165C7.16393 4.87165 4.86487 7.17389 4.86487 10.0139C4.86487 12.8539 7.16393 15.1561 10 15.1561C12.8361 15.1561 15.1351 12.8539 15.1351 10.0139C15.1351 7.17389 12.8361 4.87165 10 4.87165V4.87165ZM16.538 4.66848C16.538 5.33217 16.0008 5.87013 15.338 5.87013C14.6753 5.87013 14.138 5.33217 14.138 4.66848C14.138 4.00482 14.6753 3.4668 15.338 3.4668C16.0008 3.4668 16.538 4.00482 16.538 4.66848" fill="white"/>
</svg>
