<svg width="149" height="25" viewBox="0 0 149 25" fill="none" xmlns="http://www.w3.org/2000/svg">
<path d="M0.185493 21.5082H13.5253C13.6272 21.5082 13.7108 21.4252 13.7108 21.3221V14.7534L20.8997 12.7382C21.2603 12.6369 21.2603 12.1242 20.8997 12.0228L13.7108 10.0077V3.43898C13.7108 3.33679 13.6281 3.25293 13.5253 3.25293H0.185493C0.0836025 3.25293 0 3.33591 0 3.43898V21.3221C0 21.4243 0.0827316 21.5082 0.185493 21.5082ZM16.8955 12.2613C17.0166 12.2945 17.0166 12.4666 16.8955 12.4998L13.7108 13.3785V11.3826L16.8955 12.2613ZM12.2042 13.7943L4.99612 15.7824C4.91774 15.8042 4.84023 15.7448 4.84023 15.6627V9.09837C4.84023 9.01627 4.91774 8.95774 4.99612 8.97871L12.2042 10.9668V13.7934V13.7943ZM1.35767 4.73875C1.35767 4.67062 1.41253 4.61471 1.48133 4.61471H12.0806C12.1485 4.61471 12.2042 4.66974 12.2042 4.73875V9.58579L3.95196 7.27276C3.71596 7.20638 3.48169 7.38457 3.48169 7.6309V17.1311C3.48169 17.3765 3.71596 17.5547 3.95196 17.4892L12.2042 15.1762V20.0232C12.2042 20.0913 12.1494 20.1472 12.0806 20.1472H1.48133C1.4134 20.1472 1.35767 20.0922 1.35767 20.0232V4.73875Z" fill="white"/>
<path d="M11.6608 0H0.185493C0.0827316 0 0 0.0829823 0 0.186055V1.17573C0 1.27793 0.0827316 1.36178 0.185493 1.36178H11.6608C17.7159 1.36178 22.6423 6.3049 22.6423 12.381C22.6423 18.457 17.7159 23.4001 11.6608 23.4001H0.185493C0.0836025 23.4001 0 23.4831 0 23.5862V24.5767C0 24.6789 0.0827316 24.7628 0.185493 24.7628H11.6608C18.4648 24.7628 24 19.2091 24 12.3818C24 5.55457 18.4648 0 11.6608 0Z" fill="white"/>
<path d="M36.584 7.496H33.112V5.672H42.072V7.496H38.6V17H36.584V7.496ZM46.4818 15.944H46.4338C46.1564 16.3813 45.8044 16.7013 45.3778 16.904C44.9511 17.096 44.4818 17.192 43.9698 17.192C43.6178 17.192 43.2711 17.144 42.9298 17.048C42.5991 16.952 42.3004 16.808 42.0338 16.616C41.7778 16.424 41.5698 16.184 41.4098 15.896C41.2498 15.608 41.1698 15.272 41.1698 14.888C41.1698 14.472 41.2444 14.12 41.3938 13.832C41.5431 13.5333 41.7404 13.288 41.9858 13.096C42.2418 12.8933 42.5351 12.7333 42.8658 12.616C43.1964 12.4987 43.5378 12.4133 43.8898 12.36C44.2524 12.296 44.6151 12.2587 44.9778 12.248C45.3404 12.2267 45.6818 12.216 46.0018 12.216H46.4818V12.008C46.4818 11.528 46.3164 11.1707 45.9858 10.936C45.6551 10.6907 45.2338 10.568 44.7218 10.568C44.3164 10.568 43.9378 10.6427 43.5858 10.792C43.2338 10.9307 42.9298 11.1227 42.6738 11.368L41.6658 10.36C42.0924 9.92267 42.5884 9.608 43.1538 9.416C43.7298 9.224 44.3218 9.128 44.9298 9.128C45.4738 9.128 45.9324 9.192 46.3058 9.32C46.6791 9.43733 46.9884 9.592 47.2338 9.784C47.4791 9.976 47.6658 10.2 47.7938 10.456C47.9324 10.7013 48.0284 10.952 48.0818 11.208C48.1458 11.464 48.1831 11.7147 48.1938 11.96C48.2044 12.1947 48.2098 12.4027 48.2098 12.584V17H46.4818V15.944ZM46.3698 13.56H45.9698C45.7031 13.56 45.4044 13.5707 45.0738 13.592C44.7431 13.6133 44.4284 13.6667 44.1298 13.752C43.8418 13.8267 43.5964 13.944 43.3938 14.104C43.1911 14.2533 43.0898 14.4667 43.0898 14.744C43.0898 14.9253 43.1271 15.08 43.2018 15.208C43.2871 15.3253 43.3938 15.4267 43.5218 15.512C43.6498 15.5973 43.7938 15.6613 43.9538 15.704C44.1138 15.736 44.2738 15.752 44.4338 15.752C45.0951 15.752 45.5804 15.5973 45.8898 15.288C46.2098 14.968 46.3698 14.536 46.3698 13.992V13.56ZM50.3075 9.32H52.2275V17H50.3075V9.32ZM50.0355 6.712C50.0355 6.40267 50.1475 6.136 50.3715 5.912C50.6062 5.67733 50.8995 5.56 51.2515 5.56C51.6035 5.56 51.8968 5.672 52.1315 5.896C52.3768 6.10933 52.4995 6.38133 52.4995 6.712C52.4995 7.04267 52.3768 7.32 52.1315 7.544C51.8968 7.75733 51.6035 7.864 51.2515 7.864C50.8995 7.864 50.6062 7.752 50.3715 7.528C50.1475 7.29333 50.0355 7.02133 50.0355 6.712ZM58.5278 11.448C58.1544 10.9253 57.6531 10.664 57.0238 10.664C56.7678 10.664 56.5171 10.728 56.2718 10.856C56.0264 10.984 55.9038 11.192 55.9038 11.48C55.9038 11.7147 56.0051 11.8853 56.2078 11.992C56.4104 12.0987 56.6664 12.1893 56.9758 12.264C57.2851 12.3387 57.6158 12.4187 57.9678 12.504C58.3304 12.5787 58.6664 12.7013 58.9758 12.872C59.2851 13.032 59.5411 13.256 59.7438 13.544C59.9464 13.832 60.0478 14.2267 60.0478 14.728C60.0478 15.1867 59.9464 15.576 59.7438 15.896C59.5518 16.2053 59.2958 16.456 58.9758 16.648C58.6664 16.84 58.3144 16.9787 57.9198 17.064C57.5251 17.1493 57.1304 17.192 56.7358 17.192C56.1384 17.192 55.5891 17.1067 55.0878 16.936C54.5864 16.7653 54.1384 16.456 53.7438 16.008L55.0238 14.808C55.2691 15.0853 55.5304 15.3147 55.8078 15.496C56.0958 15.6667 56.4424 15.752 56.8478 15.752C56.9864 15.752 57.1304 15.736 57.2798 15.704C57.4291 15.672 57.5678 15.6187 57.6958 15.544C57.8238 15.4693 57.9251 15.3787 57.9998 15.272C58.0851 15.1547 58.1278 15.0213 58.1278 14.872C58.1278 14.6053 58.0264 14.408 57.8238 14.28C57.6211 14.152 57.3651 14.0507 57.0558 13.976C56.7464 13.8907 56.4104 13.816 56.0478 13.752C55.6958 13.6773 55.3651 13.5653 55.0558 13.416C54.7464 13.256 54.4904 13.0373 54.2878 12.76C54.0851 12.4827 53.9838 12.0987 53.9838 11.608C53.9838 11.1813 54.0691 10.8133 54.2398 10.504C54.4211 10.184 54.6558 9.92267 54.9438 9.72C55.2318 9.51733 55.5624 9.368 55.9358 9.272C56.3091 9.176 56.6878 9.128 57.0718 9.128C57.5838 9.128 58.0904 9.21867 58.5918 9.4C59.0931 9.57067 59.4984 9.86933 59.8078 10.296L58.5278 11.448ZM63.4611 10.392H63.4931C63.6425 10.072 63.9038 9.784 64.2771 9.528C64.6611 9.26133 65.1518 9.128 65.7491 9.128C66.2611 9.128 66.6931 9.21333 67.0451 9.384C67.4078 9.55467 67.7011 9.77867 67.9251 10.056C68.1491 10.3333 68.3091 10.6533 68.4051 11.016C68.5011 11.3787 68.5491 11.7573 68.5491 12.152V17H66.6291V13.112C66.6291 12.8987 66.6185 12.664 66.5971 12.408C66.5758 12.1413 66.5171 11.896 66.4211 11.672C66.3358 11.4373 66.1971 11.2453 66.0051 11.096C65.8131 10.936 65.5518 10.856 65.2211 10.856C64.9011 10.856 64.6291 10.9093 64.4051 11.016C64.1918 11.1227 64.0105 11.2667 63.8611 11.448C63.7225 11.6293 63.6211 11.8373 63.5571 12.072C63.4931 12.3067 63.4611 12.552 63.4611 12.808V17H61.5411V4.904H63.4611V10.392ZM70.3446 13.16C70.3446 12.552 70.4513 12.0027 70.6646 11.512C70.8886 11.0107 71.1873 10.584 71.5606 10.232C71.934 9.88 72.3766 9.608 72.8886 9.416C73.4006 9.224 73.9446 9.128 74.5206 9.128C75.0966 9.128 75.6406 9.224 76.1526 9.416C76.6646 9.608 77.1073 9.88 77.4806 10.232C77.854 10.584 78.1473 11.0107 78.3606 11.512C78.5846 12.0027 78.6966 12.552 78.6966 13.16C78.6966 13.768 78.5846 14.3227 78.3606 14.824C78.1473 15.3147 77.854 15.736 77.4806 16.088C77.1073 16.44 76.6646 16.712 76.1526 16.904C75.6406 17.096 75.0966 17.192 74.5206 17.192C73.9446 17.192 73.4006 17.096 72.8886 16.904C72.3766 16.712 71.934 16.44 71.5606 16.088C71.1873 15.736 70.8886 15.3147 70.6646 14.824C70.4513 14.3227 70.3446 13.768 70.3446 13.16ZM72.2646 13.16C72.2646 13.4587 72.3126 13.7467 72.4086 14.024C72.5153 14.3013 72.6646 14.5467 72.8566 14.76C73.0593 14.9733 73.2993 15.144 73.5766 15.272C73.854 15.4 74.1686 15.464 74.5206 15.464C74.8726 15.464 75.1873 15.4 75.4646 15.272C75.742 15.144 75.9766 14.9733 76.1686 14.76C76.3713 14.5467 76.5206 14.3013 76.6166 14.024C76.7233 13.7467 76.7766 13.4587 76.7766 13.16C76.7766 12.8613 76.7233 12.5733 76.6166 12.296C76.5206 12.0187 76.3713 11.7733 76.1686 11.56C75.9766 11.3467 75.742 11.176 75.4646 11.048C75.1873 10.92 74.8726 10.856 74.5206 10.856C74.1686 10.856 73.854 10.92 73.5766 11.048C73.2993 11.176 73.0593 11.3467 72.8566 11.56C72.6646 11.7733 72.5153 12.0187 72.4086 12.296C72.3126 12.5733 72.2646 12.8613 72.2646 13.16ZM85.3566 5.672H87.3726V17H85.3566V5.672ZM94.9298 11.624C94.7058 11.3893 94.4711 11.2027 94.2258 11.064C93.9804 10.9253 93.7298 10.856 93.4738 10.856C93.1218 10.856 92.8071 10.92 92.5298 11.048C92.2524 11.176 92.0124 11.3467 91.8098 11.56C91.6178 11.7733 91.4684 12.0187 91.3618 12.296C91.2658 12.5733 91.2178 12.8613 91.2178 13.16C91.2178 13.4587 91.2658 13.7467 91.3618 14.024C91.4684 14.3013 91.6178 14.5467 91.8098 14.76C92.0124 14.9733 92.2524 15.144 92.5298 15.272C92.8071 15.4 93.1218 15.464 93.4738 15.464C93.7724 15.464 94.0498 15.4053 94.3058 15.288C94.5618 15.16 94.7804 14.9787 94.9618 14.744L96.2418 16.12C96.0498 16.312 95.8258 16.4773 95.5698 16.616C95.3244 16.7547 95.0738 16.8667 94.8178 16.952C94.5618 17.0373 94.3164 17.096 94.0818 17.128C93.8471 17.1707 93.6444 17.192 93.4738 17.192C92.8978 17.192 92.3538 17.096 91.8418 16.904C91.3298 16.712 90.8871 16.44 90.5138 16.088C90.1404 15.736 89.8418 15.3147 89.6178 14.824C89.4044 14.3227 89.2978 13.768 89.2978 13.16C89.2978 12.552 89.4044 12.0027 89.6178 11.512C89.8418 11.0107 90.1404 10.584 90.5138 10.232C90.8871 9.88 91.3298 9.608 91.8418 9.416C92.3538 9.224 92.8978 9.128 93.4738 9.128C93.9644 9.128 94.4551 9.224 94.9458 9.416C95.4471 9.59733 95.8844 9.89067 96.2578 10.296L94.9298 11.624ZM99.3205 10.392H99.3525C99.5018 10.072 99.7632 9.784 100.137 9.528C100.521 9.26133 101.011 9.128 101.609 9.128C102.121 9.128 102.553 9.21333 102.905 9.384C103.267 9.55467 103.561 9.77867 103.785 10.056C104.009 10.3333 104.169 10.6533 104.265 11.016C104.361 11.3787 104.409 11.7573 104.409 12.152V17H102.489V13.112C102.489 12.8987 102.478 12.664 102.457 12.408C102.435 12.1413 102.377 11.896 102.281 11.672C102.195 11.4373 102.057 11.2453 101.865 11.096C101.673 10.936 101.411 10.856 101.081 10.856C100.761 10.856 100.489 10.9093 100.265 11.016C100.051 11.1227 99.8698 11.2667 99.7205 11.448C99.5818 11.6293 99.4805 11.8373 99.4165 12.072C99.3525 12.3067 99.3205 12.552 99.3205 12.808V17H97.4005V4.904H99.3205V10.392ZM106.62 9.32H108.54V17H106.62V9.32ZM106.348 6.712C106.348 6.40267 106.46 6.136 106.684 5.912C106.919 5.67733 107.212 5.56 107.564 5.56C107.916 5.56 108.209 5.672 108.444 5.896C108.689 6.10933 108.812 6.38133 108.812 6.712C108.812 7.04267 108.689 7.32 108.444 7.544C108.209 7.75733 107.916 7.864 107.564 7.864C107.212 7.864 106.919 7.752 106.684 7.528C106.46 7.29333 106.348 7.02133 106.348 6.712ZM110.744 4.904H112.664V12.504L115.624 9.32H118.088L114.792 12.808L118.296 17H115.752L112.696 13.08H112.664V17H110.744V4.904ZM124.138 15.944H124.09C123.813 16.3813 123.461 16.7013 123.034 16.904C122.607 17.096 122.138 17.192 121.626 17.192C121.274 17.192 120.927 17.144 120.586 17.048C120.255 16.952 119.957 16.808 119.69 16.616C119.434 16.424 119.226 16.184 119.066 15.896C118.906 15.608 118.826 15.272 118.826 14.888C118.826 14.472 118.901 14.12 119.05 13.832C119.199 13.5333 119.397 13.288 119.642 13.096C119.898 12.8933 120.191 12.7333 120.522 12.616C120.853 12.4987 121.194 12.4133 121.546 12.36C121.909 12.296 122.271 12.2587 122.634 12.248C122.997 12.2267 123.338 12.216 123.658 12.216H124.138V12.008C124.138 11.528 123.973 11.1707 123.642 10.936C123.311 10.6907 122.89 10.568 122.378 10.568C121.973 10.568 121.594 10.6427 121.242 10.792C120.89 10.9307 120.586 11.1227 120.33 11.368L119.322 10.36C119.749 9.92267 120.245 9.608 120.81 9.416C121.386 9.224 121.978 9.128 122.586 9.128C123.13 9.128 123.589 9.192 123.962 9.32C124.335 9.43733 124.645 9.592 124.89 9.784C125.135 9.976 125.322 10.2 125.45 10.456C125.589 10.7013 125.685 10.952 125.738 11.208C125.802 11.464 125.839 11.7147 125.85 11.96C125.861 12.1947 125.866 12.4027 125.866 12.584V17H124.138V15.944ZM124.026 13.56H123.626C123.359 13.56 123.061 13.5707 122.73 13.592C122.399 13.6133 122.085 13.6667 121.786 13.752C121.498 13.8267 121.253 13.944 121.05 14.104C120.847 14.2533 120.746 14.4667 120.746 14.744C120.746 14.9253 120.783 15.08 120.858 15.208C120.943 15.3253 121.05 15.4267 121.178 15.512C121.306 15.5973 121.45 15.6613 121.61 15.704C121.77 15.736 121.93 15.752 122.09 15.752C122.751 15.752 123.237 15.5973 123.546 15.288C123.866 14.968 124.026 14.536 124.026 13.992V13.56ZM126.892 9.32H128.972L130.636 14.696H130.668L132.22 9.32H134.3L135.964 14.696H135.996L137.596 9.32H139.532L136.924 17H135.02L133.196 11.752H133.164L131.548 17H129.564L126.892 9.32ZM145.466 15.944H145.418C145.141 16.3813 144.789 16.7013 144.362 16.904C143.935 17.096 143.466 17.192 142.954 17.192C142.602 17.192 142.255 17.144 141.914 17.048C141.583 16.952 141.285 16.808 141.018 16.616C140.762 16.424 140.554 16.184 140.394 15.896C140.234 15.608 140.154 15.272 140.154 14.888C140.154 14.472 140.229 14.12 140.378 13.832C140.527 13.5333 140.725 13.288 140.97 13.096C141.226 12.8933 141.519 12.7333 141.85 12.616C142.181 12.4987 142.522 12.4133 142.874 12.36C143.237 12.296 143.599 12.2587 143.962 12.248C144.325 12.2267 144.666 12.216 144.986 12.216H145.466V12.008C145.466 11.528 145.301 11.1707 144.97 10.936C144.639 10.6907 144.218 10.568 143.706 10.568C143.301 10.568 142.922 10.6427 142.57 10.792C142.218 10.9307 141.914 11.1227 141.658 11.368L140.65 10.36C141.077 9.92267 141.573 9.608 142.138 9.416C142.714 9.224 143.306 9.128 143.914 9.128C144.458 9.128 144.917 9.192 145.29 9.32C145.663 9.43733 145.973 9.592 146.218 9.784C146.463 9.976 146.65 10.2 146.778 10.456C146.917 10.7013 147.013 10.952 147.066 11.208C147.13 11.464 147.167 11.7147 147.178 11.96C147.189 12.1947 147.194 12.4027 147.194 12.584V17H145.466V15.944ZM145.354 13.56H144.954C144.687 13.56 144.389 13.5707 144.058 13.592C143.727 13.6133 143.413 13.6667 143.114 13.752C142.826 13.8267 142.581 13.944 142.378 14.104C142.175 14.2533 142.074 14.4667 142.074 14.744C142.074 14.9253 142.111 15.08 142.186 15.208C142.271 15.3253 142.378 15.4267 142.506 15.512C142.634 15.5973 142.778 15.6613 142.938 15.704C143.098 15.736 143.258 15.752 143.418 15.752C144.079 15.752 144.565 15.5973 144.874 15.288C145.194 14.968 145.354 14.536 145.354 13.992V13.56Z" fill="white"/>
</svg>
