<svg width="20" height="20" viewBox="0 0 20 20" fill="none" xmlns="http://www.w3.org/2000/svg">
<path fill-rule="evenodd" clip-rule="evenodd" d="M0 0H20V20H0V0ZM4.60332 6.25004C4.72648 6.36104 4.78938 6.52406 4.77268 6.689V12.6275C4.80923 12.8417 4.7417 13.0605 4.59078 13.2169L3.17944 14.9289V15.1546H7.18136V14.9289L5.77002 13.2169C5.618 13.0608 5.54629 12.8434 5.57557 12.6275V7.49166L9.08823 15.1546H9.49594L12.5131 7.49166V13.5994C12.5131 13.7625 12.5131 13.7938 12.4064 13.9004L11.3213 14.9539V15.1797H16.5903V14.9539L15.5427 13.9255C15.4503 13.855 15.4044 13.7392 15.4235 13.6245V6.06818C15.4044 5.95352 15.4503 5.83767 15.5427 5.76719L16.6153 4.73877V4.51302H12.902L10.2549 11.1162L7.24408 4.51302H3.3488V4.73877L4.60332 6.25004Z" fill="white"/>
</svg>
