{"asset":{"generator":"Khronos glTF Spline I/O v0.0.1","version":"2.0"},"scenes":[{"nodes":[0]}],"nodes":[{"name":"","children":[1,2,3]},{"name":"logo","matrix":[0.9998476951563913,-0.0062543831095604975,-0.016293225045121672,0,0.01623819363379976,-0.008751041698924935,0.9998298556938051,0,-0.006395901653665462,-0.9999421493071983,-0.00864814898889453,0,-321,11,44,1],"children":[4,5,6,7]},{"name":"Directional Light","translation":[200,300,819.9258042565343],"rotation":[-0.19684203154173946,0.059598971632511565,-0.2835891665974306,0.9366313905627137],"extensions":{"KHR_lights_punctual":{"light":0}}},{"name":"Personal Camera","camera":0,"translation":[315.6634574199893,392.6232690762836,742.4958788631172],"rotation":[-0.21977629925348743,0.3611733214053391,0.08800672604370988,0.9019462436101968]},{"name":"light_fd","matrix":[265.4240280655697,1.4388666134655782e-17,0.08522509376608627,0,0.08522509376608511,-0.00004324306526745359,-265.42402806556606,0,1.3884931803244735e-8,265.4240722656214,-0.0000432430679998308,0,-285.43328359842195,0,298.67500813109064,1],"mesh":0},{"name":"root","matrix":[1.108466711521816e-7,-0.6549493074417008,3.903801158127584e-8,0,3.635699005420442e-17,-3.903801150856186e-8,-0.6549493074417103,0,1.7031610012054197,2.882508998620119e-7,-1.701799702363726e-14,0,-83.9720354164626,-56.81005975315014,184.25220693381792,1],"mesh":1},{"name":"light_ar","matrix":[265.42402806556964,2.877733566595608e-17,0.08522509376608656,0,0.08522509376608499,-0.0000432430652674536,-265.424028065566,0,1.3884932731313792e-8,265.4240722656213,-0.0000432430679998308,0,-285.43328359842195,5.03968229773827e-21,298.6750081310905,1],"mesh":2},{"name":"glass","matrix":[265.4240280655697,1.4388666134655782e-17,0.08522509376608627,0,0.08522509376608511,-0.00004324306526745359,-265.42402806556606,0,1.3884931803244735e-8,265.4240722656214,-0.0000432430679998308,0,-285.43328359842195,0,298.67500813109064,1],"mesh":3}],"cameras":[{"type":"orthographic","orthographic":{"xmag":1147,"ymag":1415,"zfar":100000,"znear":-100000}}],"meshes":[{"primitives":[{"attributes":{"POSITION":0,"NORMAL":1,"TEXCOORD_0":2}}]},{"primitives":[{"attributes":{"POSITION":3,"NORMAL":4,"TEXCOORD_0":5}}]},{"primitives":[{"attributes":{"POSITION":6,"NORMAL":7,"TEXCOORD_0":8}}]},{"primitives":[{"attributes":{"POSITION":9,"NORMAL":10,"TEXCOORD_0":11}}]}],"buffers":[{"uri":"data:application/octet-stream;base64,","byteLength":570240},{"uri":"data:application/octet-stream;base64,","byteLength":80640},{"uri":"data:application/octet-stream;base64,","byteLength":320256},{"uri":"data:application/octet-stream;base64,","byteLength":897024}],"bufferViews":[{"buffer":0,"byteOffset":0,"byteLength":213840,"target":34962},{"buffer":0,"byteOffset":213840,"byteLength":213840,"target":34962},{"buffer":0,"byteOffset":427680,"byteLength":142560,"target":34962},{"buffer":1,"byteOffset":0,"byteLength":30240,"target":34962},{"buffer":1,"byteOffset":30240,"byteLength":30240,"target":34962},{"buffer":1,"byteOffset":60480,"byteLength":20160,"target":34962},{"buffer":2,"byteOffset":0,"byteLength":120096,"target":34962},{"buffer":2,"byteOffset":120096,"byteLength":120096,"target":34962},{"buffer":2,"byteOffset":240192,"byteLength":80064,"target":34962},{"buffer":3,"byteOffset":0,"byteLength":336384,"target":34962},{"buffer":3,"byteOffset":336384,"byteLength":336384,"target":34962},{"buffer":3,"byteOffset":672768,"byteLength":224256,"target":34962}],"accessors":[{"bufferView":0,"byteOffset":0,"componentType":5126,"count":17820,"type":"VEC3","min":[0.38776713609695435,0.40524929761886597,-0.14068196713924408],"max":[1.787387728691101,1.8568840026855469,0.03174643963575363]},{"bufferView":1,"byteOffset":0,"componentType":5126,"count":17820,"type":"VEC3","min":[-0.9999999403953552,-0.9999998211860657,-1],"max":[0.9999998807907104,0.9999999403953552,1]},{"bufferView":2,"byteOffset":0,"componentType":5126,"count":17820,"type":"VEC2","min":[0,0],"max":[1,1]},{"bufferView":3,"byteOffset":0,"componentType":5126,"count":2520,"type":"VEC3","min":[-11.750983238220215,-11.070244789123535,-57.81948471069336],"max":[38.10408020019531,579.75732421875,100.41014862060547]},{"bufferView":4,"byteOffset":0,"componentType":5126,"count":2520,"type":"VEC3","min":[-0.9865633249282837,-1,-1],"max":[0.9865632057189941,1,1]},{"bufferView":5,"byteOffset":0,"componentType":5126,"count":2520,"type":"VEC2","min":[-1.862645149230957e-7,0.01000000536441803],"max":[1,1]},{"bufferView":6,"byteOffset":0,"componentType":5126,"count":10008,"type":"VEC3","min":[0.3999207615852356,0.41626277565956116,-0.29744240641593933],"max":[1.6318919658660889,1.8457517623901367,-0.08751227706670761]},{"bufferView":7,"byteOffset":0,"componentType":5126,"count":10008,"type":"VEC3","min":[-0.9999999403953552,-0.9999999403953552,-1],"max":[0.9999999403953552,0.9999999403953552,1]},{"bufferView":8,"byteOffset":0,"componentType":5126,"count":10008,"type":"VEC2","min":[0,0],"max":[1,1]},{"bufferView":9,"byteOffset":0,"componentType":5126,"count":28032,"type":"VEC3","min":[0.36941131949424744,0.38689345121383667,-0.32665321230888367],"max":[1.8057435750961304,1.8752297163009644,0.05010213330388069]},{"bufferView":10,"byteOffset":0,"componentType":5126,"count":28032,"type":"VEC3","min":[-0.9999999403953552,-0.9999999403953552,-1],"max":[0.9999999403953552,0.9999999403953552,1]},{"bufferView":11,"byteOffset":0,"componentType":5126,"count":28032,"type":"VEC2","min":[0,0],"max":[1,1]}],"extensions":{"KHR_lights_punctual":{"lights":[{"type":"directional","name":"Directional Light","color":[1,1,1],"intensity":0.7}]}},"extensionsUsed":["KHR_lights_punctual"]}